<?xml version="1.0" encoding="utf-8"?>
<!-- Generator: Adobe Illustrator 17.1.0, SVG Export Plug-In . SVG Version: 6.00 Build 0)  -->
<!DOCTYPE svg PUBLIC "-//W3C//DTD SVG 1.1//EN" "http://www.w3.org/Graphics/SVG/1.1/DTD/svg11.dtd">
<svg version="1.1" xmlns="http://www.w3.org/2000/svg" xmlns:xlink="http://www.w3.org/1999/xlink" x="0px" y="0px"
	 viewBox="0 0 120 30" enable-background="new 0 0 120 30" xml:space="preserve">
<g id="feedburner_1_" display="none" enable-background="new    ">
	<g id="feedburner" display="inline">
		<g>
			<path fill-rule="evenodd" clip-rule="evenodd" fill="#FFFFFF" d="M105,29.6c-8.1,0-14.6-6.6-14.6-14.6S96.9,0.4,105,0.4
				s14.6,6.6,14.6,14.6S113.1,29.6,105,29.6z"/>
		</g>
		<g>
			<path fill="#4D4545" d="M105,0.8c7.9,0,14.2,6.4,14.2,14.2s-6.4,14.2-14.2,14.2S90.8,22.9,90.8,15S97.1,0.8,105,0.8 M105,0
				c-8.3,0-15,6.7-15,15s6.7,15,15,15s15-6.7,15-15S113.3,0,105,0L105,0z"/>
		</g>
	</g>
</g>
<g id="google_x2B__1_" display="none" enable-background="new    ">
	<g id="google_x2B_" display="inline">
		<g>
			<path fill-rule="evenodd" clip-rule="evenodd" fill="#FFFFFF" d="M75,29.6c-8.1,0-14.6-6.6-14.6-14.6S66.9,0.4,75,0.4
				S89.6,6.9,89.6,15S83.1,29.6,75,29.6z"/>
		</g>
		<g>
			<path fill="#4D4545" d="M75,0.8c7.9,0,14.2,6.4,14.2,14.2S82.9,29.2,75,29.2S60.8,22.9,60.8,15S67.1,0.8,75,0.8 M75,0
				c-8.3,0-15,6.7-15,15s6.7,15,15,15s15-6.7,15-15S83.3,0,75,0L75,0z"/>
		</g>
	</g>
</g>
<g id="twitter_1_" display="none" enable-background="new    ">
	<g id="twitter" display="inline">
		<g>
			<path fill-rule="evenodd" clip-rule="evenodd" fill="#FFFFFF" d="M45,29.6c-8.1,0-14.6-6.6-14.6-14.6S36.9,0.4,45,0.4
				S59.6,6.9,59.6,15S53.1,29.6,45,29.6z"/>
		</g>
		<g>
			<path fill="#4D4545" d="M45,0.8c7.9,0,14.2,6.4,14.2,14.2S52.9,29.2,45,29.2S30.8,22.9,30.8,15S37.1,0.8,45,0.8 M45,0
				c-8.3,0-15,6.7-15,15s6.7,15,15,15s15-6.7,15-15S53.3,0,45,0L45,0z"/>
		</g>
	</g>
</g>
<g id="Facebook_1_" display="none" enable-background="new    ">
	<g id="Facebook" display="inline">
		<g>
			<path fill-rule="evenodd" clip-rule="evenodd" fill="#FFFFFF" d="M15,29.6C6.9,29.6,0.4,23.1,0.4,15S6.9,0.4,15,0.4
				S29.6,6.9,29.6,15S23.1,29.6,15,29.6z"/>
		</g>
		<g>
			<path fill="#534741" d="M15,0.8c7.9,0,14.2,6.4,14.2,14.2S22.9,29.2,15,29.2S0.8,22.9,0.8,15S7.1,0.8,15,0.8 M15,0
				C6.7,0,0,6.7,0,15s6.7,15,15,15s15-6.7,15-15S23.3,0,15,0L15,0z"/>
		</g>
	</g>
</g>
<g id="Layer_5">
	<rect x="2.8" y="1.8" fill="none" width="120" height="30"/>
	<text transform="matrix(1 0 0 1 2.75 27.0215)" fill="#534741" font-family="'Socialico'" font-size="36">lgfr</text>
</g>
</svg>
