<?xml version="1.0" encoding="utf-8"?>
<!-- Generator: Adobe Illustrator 17.1.0, SVG Export Plug-In . SVG Version: 6.00 Build 0)  -->
<!DOCTYPE svg PUBLIC "-//W3C//DTD SVG 1.1//EN" "http://www.w3.org/Graphics/SVG/1.1/DTD/svg11.dtd">
<svg version="1.1" id="Layer_1" xmlns="http://www.w3.org/2000/svg" xmlns:xlink="http://www.w3.org/1999/xlink" x="0px" y="0px"
	 viewBox="-1 207 200 66" enable-background="new -1 207 200 66" xml:space="preserve">
<g>
	<line fill="none" x1="4" y1="265.5" x2="184" y2="260.5"/>
	<g>
		<g>
			<g>
				<g>
					<path fill="#4A4A4A" d="M184.1,262.8c0.1-0.3,0-1-0.2-0.8l-0.2,1.2L184.1,262.8z"/>
					<path fill="#4A4A4A" d="M182.2,260.6c-0.3,0.6-0.6,1.6-0.4,2.6c0.3-1.1,0.4-0.7,0.7-2c0.3-0.1,0.5,0.4,0.4,0.8
						c0.1-0.3,0.4,0.2,0.5-0.5c-0.4-0.9-0.8-0.9-1.2-0.2C182.1,261.2,182.2,260.9,182.2,260.6z"/>
					<path fill="#4A4A4A" d="M156.7,259.5l0.2,0.1C156.8,259.6,156.7,259.6,156.7,259.5z"/>
					<path fill="#4A4A4A" d="M140.8,259.4c0.1,0,0.2-0.1,0.2-0.3C140.9,259.2,140.8,259.2,140.8,259.4z"/>
					<path fill="#4A4A4A" d="M138.1,258.1c0.1,0,0.1,0.1,0.2,0.1C138.2,258.1,138.1,258,138.1,258.1z"/>
					<path fill="#4A4A4A" d="M156.7,259.5l-0.4-0.4C156.2,259.6,156.5,259.5,156.7,259.5z"/>
					<path fill="#4A4A4A" d="M178.8,263.5c0.1-0.1,0.2-0.2,0.2-0.3c-0.1,0.1-0.1,0.1-0.2,0.1C178.8,263.5,178.8,263.5,178.8,263.5z"
						/>
					<path fill="#4A4A4A" d="M163.6,258.5h0.1c0-0.1,0.1-0.3,0.1-0.5L163.6,258.5z"/>
					<path fill="#4A4A4A" d="M169,258.1c-0.1,0-0.1,0.9-0.2,1.4c0.1-0.4,0.1-0.6,0.2-0.7C169,258.6,169,258.5,169,258.1z"/>
					<path fill="#4A4A4A" d="M177.5,259.6l0.1-0.1C177.6,259.5,177.5,259.5,177.5,259.6z"/>
					<path fill="#4A4A4A" d="M159.8,258.4c0-0.1,0-0.3-0.1-0.3C159.7,258.1,159.7,258.2,159.8,258.4z"/>
					<path fill="#4A4A4A" d="M10.3,269.9c0-0.1,0-0.1,0-0.2C10.3,269.9,10.3,269.9,10.3,269.9z"/>
					<path fill="#4A4A4A" d="M4,265.1L4,265.1c0.1-0.2,0.1-0.4,0.1-0.6L4,265.1z"/>
					<path fill="#4A4A4A" d="M133.1,257L133.1,257C133.3,257,133.2,257,133.1,257z"/>
					<path fill="#4A4A4A" d="M87.8,259c0.5,0.9-0.8,1.2,0,2.1C87.7,260.8,88.4,259.6,87.8,259z"/>
					<path fill="#4A4A4A" d="M178.7,263.5c-0.1,0-0.1,0-0.2,0C178.5,263.5,178.6,263.5,178.7,263.5z"/>
					<path fill="#4A4A4A" d="M87.8,261.1L87.8,261.1L87.8,261.1C87.8,261.2,87.8,261.1,87.8,261.1z"/>
					<path fill="#4A4A4A" d="M121.8,258c0,0.2,0.1,0.3,0.1,0.4C121.9,258.2,121.8,258.1,121.8,258z"/>
					<path fill="#4A4A4A" d="M130.3,259.1l-0.2-0.1C130.1,259,130.2,259.1,130.3,259.1z"/>
					<path fill="#4A4A4A" d="M117.4,259.5c-0.1-0.1-0.2-0.2-0.3-0.1c0,0,0,0.1,0.1,0.1C117.2,259.4,117.3,259.4,117.4,259.5z"/>
					<path fill="#4A4A4A" d="M112.8,259.6c0,0.1,0.1,0.1,0.1,0.2c0,0,0.1,0,0.1-0.1L112.8,259.6z"/>
					<path fill="#4A4A4A" d="M24.2,269c-0.1-0.3-0.2-0.6-0.2-0.9C24.1,268.9,23.4,269.1,24.2,269z"/>
					<path fill="#4A4A4A" d="M178.8,263c0,0.2-0.1,0.4-0.1,0.4c0.1,0,0.1,0,0.2-0.1C178.8,263.2,178.8,263.1,178.8,263z"/>
					<path fill="#4A4A4A" d="M117.4,267.2l-0.7-0.1C116.9,267.2,117.2,267.2,117.4,267.2z"/>
					<path fill="#4A4A4A" d="M57.1,268l-0.1,0.2C57,268.1,57.1,268,57.1,268z"/>
					<path fill="#4A4A4A" d="M114.5,267.4c-0.1-0.3-0.3-0.5-0.4-0.7c0,0.1-0.1,0.1-0.1,0.3L114.5,267.4z"/>
					<path fill="#4A4A4A" d="M24,268.1L24,268.1L24,268.1z"/>
					<path fill="#4A4A4A" d="M19.3,270.6c0.7,0,0.3-1.3,0.4-2c0.8-0.4,0.4,0.9,0.7,1.6c0.5-0.4,0.9-1.6,1.3-1.5c0,0.2,0.1,0.3,0,0.6
						c0.5-1,1.6-0.1,2.2-1.4c0.1,0,0.1,0.1,0.1,0.2c-0.1-0.6-0.2-1.3-0.1-1.8c0.3,0,0.6-0.8,0.7,0c-0.2,0-0.2,0.3-0.3,0.6l0.3-0.4
						c0.3,1.2-0.4,0.4-0.4,1.3c0.6-0.4,1.3-1.4,1.8-1.1c0.1,1.2-1.1,0.4-0.4,1.5l-0.8-0.4c0.6,1.9-0.5-0.1,0.1,1.9
						c1,0.3,1.1-0.6,2.1-0.3c0.2-0.7-0.1-1,0.1-1.6c1.4-1.2,1.2,3,2.2,1.3c0.2-0.8,0.3-2.3,1.1-1.5l-0.2,1.3c1,0.1,0.5-1.9,1.5-1.1
						c-0.2,0.5-0.7,0.5-0.6,0.6c0.7,1,0.4-0.8,0.9-0.8l0.1,1.2c1-0.2,2.1-1.1,3.2-1.4c-0.1,0.4-0.2,0.7,0,1.1
						c1.4-0.6,3.1,0.1,4.4,0.7l0.5-1c0.1,0,0.2,0.5,0.1,0.7c0.5,0.4,0-0.7,0.3-1.1c0.3-0.1,0.4,0.6,0.2,0.9c0.9-0.9,2.6-2,3.7-0.9
						l-0.2,0.3c0.8,0.4,0.8-2.1,1.6-1.2l-0.1,0.2c1.7,0.4,3.5-0.6,4.9,0.9c0.2-1.5,1.7,0.6,1.7-1.5c1,1,0.7,1.4,2.1,2
						c0.4,0.1,0.5-1.3,0.9-1.5v1.1L56,267l0.4,1.3l0.4-0.3c-0.2-0.1-0.4-0.5-0.4-0.8c0.6-0.5,1.6,0.7,1.7,1.3l1.5-1
						c0,0.4-0.3,0.6-0.5,0.9c0.8-1.1,0.2,1.1,0.9,0.1c-0.1-0.2,0-0.6,0-0.9c0.4,0.6,1.3,0.6,1.9,0.3l-0.1,0.7
						c1.2,0.2,2.4-0.4,3.7-0.4c-0.5-0.3-0.4-1.6,0-1.8l0.2,1.1c0.2-0.7-0.4-0.4,0.1-1.3c0.5,0.1,0.4,1.3,0.1,1.7l0.6-0.4
						c0,0.3-0.1,0.5-0.1,1c0.2-0.7,1,1.1,1.4-0.1v0.3c1.3,0,1.9-0.4,2.9-0.5c0-1,0.4-0.8,0.7-1.6c0.8,0.3,1.7,1,2.6,0.9
						c0.6-0.5,0.2-0.8,0.4-1.4c0.1,0.9,1,0.8,0.5,1.4c1.1-0.2,1.4-0.2,2.8-1c-0.2-0.4-0.3-0.5-0.3-0.8c0.3-0.2,0.6,0.4,0.6,0.8
						l-0.1,0.1c1.6-1.4,3.7,2.5,4.9,0.6l-0.1,0.1l1.3-1c0.6,0.1-0.3,0.7,0.1,1.2c1.4-1.5,2.2,0.2,3.4-0.9c1,2.6,3.2-0.3,4.5,1.4
						l-0.1-0.6c0.3-0.6,0.4,0.3,0.6,0.5c0-0.5-0.4-0.5-0.2-0.9c2.6-0.8,5.5,0.8,8.3,1.2c1,0.1,0.5-3.2,1.8-1.8l-0.3,1.2
						c2-1.4,4.1-0.1,6.1-1.3c-0.1,0.3-0.1,0.6-0.3,0.6c0.4,0.8,1.5,0,1.5-0.7c0.3,0.1,0.1,0.6,0.3,1c0.4,0.5,1-1.1,1.3-0.3
						c0,0.1-0.1,0.3-0.2,0.3c0.3-0.4,1.3,0.1,1-0.9c0.8,0.4,1.4-0.5,2,0.1c0.4-1.1,1.3,0.5,1.4-1c0,1.6,1.3,1.2,1.8,0.5
						c-0.1,0.5,0.4,0.5,0.3,1.2c0.5,0,1-0.3,0.9-1.2c1,1.9,1.9-1.6,2.6,0.8c1.6-0.9,3-1.5,4.4-1.9c0,1.6-1.6,0.2-1.5,1.9
						c1.3-0.7,2.1-2.1,3.4-1.7c0.4,0.2-0.2,0.7-0.3,1c1.3-0.7,2.6,0.1,3.8-0.8c0,0.1-0.1,0.3-0.2,0.4c0.2-0.1,0.6,0.2,0.5-0.5
						l-0.2,0.2c-0.4-1,0.9-2.2,0.9-2.8c-0.3,2.1,1.2,0.5,0.6,3.1c0.2-0.1,0.3-0.5,0.3-1c0.2,0.1,0.3,0.4,0.1,1
						c0.8-0.4,0.5-1.2,1.3-1.2c0,0.3-0.1,0.5-0.2,0.9c0.4-0.7,0.7-1.4,1.4-1.1c0,0.2,0,0.5-0.1,0.5c1.1-0.1,1.9-1.9,3.1-1.2
						c-0.3,1.5,0.4,0.5,0.5,1.8l0.6-0.4l-0.3-0.6c0.6,0,1.1-1,1.6-0.5l-0.4,0.6l1.1-0.3l-0.6-0.5c0.6-0.7-0.1-1.7,0.7-1.3
						c-0.2,0.1,0.6,0,0.9,0.8l0,0c0.3-0.4,0.6-0.9,1-0.6c0.1,0.4,0,1.4,0,1.7c0.3-1.1,1.3-0.3,1.7-1.5c-0.1,0.3-0.1,1-0.1,1.1
						l0.2-0.9c0.3,0.3,0.3,0.4,0.3,1c0.8,0.1-0.3-1.6,0.7-1c-0.1,0.1,0,0.2-0.2,0.3c1,0.3,1.8-0.6,2.7-0.2c0.3,1.3-0.8,0.3-0.4,1.4
						c1.3-0.3,2.6-1.6,3.8-1.4l-0.2-0.1c0.1-1.9,0.9,0.9,1.5,0c-0.1,0.1-0.2,1-0.1,0.8c0.9,0.3,1.7-0.5,3-1.1l-0.1,0.5
						c0.5,0.4,1.3,0.2,1.9,0.4c0.1-0.5,0.5-0.4,0.2-1.1c1.7,2.7,3.1-1.5,4.6,0.7c-0.2,0-0.4,0.4-0.3,0.4l1.2-0.5
						c-0.1-0.8-0.2-0.5-0.5-1.1c0.1-0.5,0.5-0.9,0.8-0.9c-0.5,0.6,0,1.3,0.3,1.7c0-0.2,0-0.5,0-0.8c0.7,1.4,0.1-1.6,1-0.7v0.4
						c0.3-0.2,0.6-0.8,1-0.7c0.2,0.9-0.3,0.4-0.3,1.2c0.5-0.1,0.9-1.8,1.4-0.9c-0.2,0.3-0.5,0.3-0.7,0.5c0.5,1.1,0.6,0.8,1,1l0,0
						l0.9,0.5l-0.2-0.3c0.6-2.5,1.3-0.5,2.1-2.1c-0.8,1.5-0.1,0.9-0.1,1.9c0.2,0.3,0.6,0.6,0.5,0.9c0.4-0.9,0.7,0.7,1.2-0.6
						c0,0.3,0.4,0,0.4,0.9c0.5-0.3-0.1-0.6-0.1-1c0.8-1.2,1.9,1.4,3.1-0.3c1-0.7,1.1-1.8,2-2.4c0.3,0.5-0.2,1.2-0.2,1.2
						c0.5,0.5,0.9,0.4,1.4,0c-0.1,0.3,0,0.5,0.2,0.9c0.4-0.1,0.2-1.2,0.7-0.8c-0.1,0.4-0.2,1-0.3,1.4c0.4-0.3,0.9-1,1.3-1.3
						c0.1,0.6-0.3,0.9-0.4,1.3c0.5-0.3,1.3-0.6,1.5-1.5l-0.3-0.3c0.2-0.1,0.1,0.8,0,1c-0.4,0.8-0.7-0.3-0.7-0.7l0.3-0.2
						c-0.4-2-1.3,0.4-2,0.3l0.2-1.5l-0.7,1.2c-0.2-0.4-0.3-1.2,0-1.4c-0.5-0.7-0.4,0.5-0.8-0.3c0-0.1,0-0.2,0-0.3l-0.5,0.4
						c0.1-0.3-0.1-1,0.2-0.8c-0.9-0.8-1.3,1.1-1.7,0l0.1-0.1c-1.2,0.5-0.1,1.1-0.9,2.3l-0.8-2v1c-0.1,0-0.4-0.1-0.3-0.5
						c-0.4,0.7,0.1,0.5-0.2,1.2c-0.6-1-1.6,0.5-1.8-1.2c-0.2,0.8,0.6,0.6,0,1.2c-0.2-1.8-0.7,0.3-1.3-0.5c0.1-0.9,0.7-0.5,0.1-1.3
						c-0.3,1.6-1-0.3-1.5,0c0,1.3-1,0.6-1.7,1c0-0.4-1.4-0.7-2.1-1.1v-0.2c-0.1,1.3-0.8,1.1-1.3,1.3c0-0.8,0.1-1.1,0.4-1.4h-0.5
						c-0.1,0.4-0.3,0.6-0.6,0.8l0.1-1c-0.7,0.1-1.3,1.2-2.1,0.5c0,0.9,0.7,2.5-0.1,3.1c0-0.5-0.1-1.3,0.1-1.5
						c-0.1,0.1-0.3,0.4-0.4,0.2l0.3-0.8c-0.4-0.3-0.2,0.7-0.5,0.6c0-0.7-0.2-0.5-0.2-1c0.1-0.1,0.3,0.3,0.4,0
						c-0.3-0.1-0.8-0.5-0.9-1c0,0.4,0,0.9-0.2,1c-0.7,0.1-0.2-0.8-0.6-1.2c-0.1,0.5-0.6,0-0.6,1c-0.2,0-0.2-0.5-0.3-0.8
						c-0.3,0.5-1.6,0.2-1.2,1.3l0.1,0.1c0,0,0,0-0.1,0l0,0l0,0c-1.1,1.1-2.3-0.5-3.4,0v-0.3c-0.6,0.4-1.5,0.3-1.9,1
						c-0.2,0-0.5-0.6-0.4-1c-0.5,0.3-0.5,0.7-1.3,0.1c0.5-0.6-0.2-0.5,0.5-0.5c-0.7-0.3-0.8-0.8-1.5,0.1c0.2-0.9-0.5-1.1-0.8-0.8
						l0.5,0.6c-0.3,0.1-0.7,0.1-1,0l0.1-1.2c-1.4-1.4-2.3,2.5-3.4,0.1c-0.3,0.8,0.7,0.6,0.5,1.5c-0.6-0.1-1.3-1.8-1.5-1.8
						c-0.9-0.6-0.7,1.7-1.6,1.3c0.1,0.4,0.3,1.5-0.4,1.9c-0.6-0.1-0.8-1.7-0.4-2.1c0.1,0,0.2,0.1,0.2,0.2c0.2-0.2,0.5-0.3,0.2-0.8
						l-0.1,0.4c-0.3-0.4-1.2-0.3-1-1c-0.5,0.4-0.2,0.7,0.2,0.9c-0.8-0.6-1.2,0-2.1-0.4c0.1,0.2,0.3,0.7,0.1,0.7
						c-1.2-0.5-0.5,0.8-1.3,1c-0.5-0.6,0.1-1.5-0.7-1c-0.5-0.4-0.1-1.1,0.1-1.4c-0.7,0.8-1.4-0.5-1.8-0.6l0.4-0.3
						c-0.2,0.2-0.4,0.2-0.6,0.2l0.2,0.8c-0.2-0.1-0.4-0.1-0.4-0.5c-0.2,0.6,0.2,1.4-0.2,2.1c-0.3-0.4-0.9,0.5-1.1-0.6
						c1,0.3-0.1-1.1,0.7-1.3c-0.2,0.1-0.3,0.1-0.6,0c0-0.1,0-0.2,0.1-0.3c-0.9-1-0.4,1.3-1.3,1.3c0.1-0.6-0.3-1.2-0.4-1
						c0.4,0,0.2,1-0.1,1.5c-0.6-0.5-0.7,0.4-1,0.3l0.4,0.2c-0.1,0.6-0.4,0.6-0.8,0.8c0-0.5,0.4-0.3,0.2-0.6
						c-0.4,1.1-1.1-1.1-1.7-0.3c-0.3-0.4-0.1-1.2-0.3-1.4c-0.7,0.8-0.8-0.8-1.6-0.1c0.2,0.8,0.3,0.6-0.2,1.5l1.3-0.6l-0.8,1.2
						c0.4,0,0.8-0.5,1-0.4c-0.4,0.7-0.3,0.5-0.1,1.2c-0.6-1.2-1,0.8-1.7-0.1v-2.1c-0.9-0.9-1.6,1.1-2.8,0.6l0.4,0.3
						c-0.1,0.8-0.7,0.1-1.1,0.5c0-0.7-0.2-0.9-0.4-1.4c0,0.5-0.9,0-0.9,1.4l-0.6-0.9c-1-0.3-1,2-2,1.8c0.3-0.8-0.2-1.2,0.4-1.8
						c-0.3,0-0.6-0.1-0.6,0.4c-0.2-0.4-0.8,1-1.1,0.3c-0.1,0.3-0.1,1-0.5,1c0-0.1,0-0.3,0-0.3c0,0.3-0.5,0.5-0.2,1.2
						c-1-2.1-2.7,0.2-3.5-1.6c-0.7,0.3-1.5,0.5-2.1,0.6c0-0.2,0-0.3,0.1-0.3c-0.9-0.6-0.5,2-1.4,1.3c-0.5-1.1,0.5-0.6,0.2-1
						c-0.2-2.3-1.1,0.3-1.8-1l0.2-0.1c-0.5-0.8-1.2,0.9-2,0.8c0,0,0-0.2,0-0.3c-0.5,1.2-1.6,1.6-2.3,1.9c0.2-0.9,0.3-0.5,0.2-1.4
						c-0.3,0.1,0.1,1.4-0.5,1.7c-0.2-0.5-0.8-0.9-0.8-1.9l0.7-0.1c-0.4-1.2-0.8,0.1-1.2-0.1v-0.5c-1,0.2-1,1.6-2.1,1.5l0.1,0.4
						c-0.6,1.4-0.5-0.8-1.1,0.3l-0.2-1.4c-0.4,0.3-1.3,1.4-2,1.7c0.4-1,1.2-1.6,1.7-2.2c-0.4,0-1.3,0.1-1.5,0.8
						c0.2-0.1,0.3-0.5,0.5-0.3c-0.4,1.1-1,1.6-1.8,1.6c0.1-2.7-2-0.6-2.6-2.7c-1.3,1-2.7-0.3-4.3-0.1c0.6,2.1-0.5,0.1-0.3,2.2
						c-0.4,0.1-0.5,0.1-0.5,0l-1.9-1.1c-0.3-0.6,0.3-0.5,0.3-1c-0.8-0.1-0.4-0.9-0.9-1.5c0.1,0.8-0.3,1.1-0.7,0.8l0.7,1
						c-1.1,1.2-1-1.8-2.1-0.6l0.3-0.7c-0.6,0.4-2.2,0-2.7,1.8c-0.1-0.2-0.3-0.8,0-1c-1.4-0.2-3.1,1.9-4.2,0.9l0.1-0.5
						c-0.3,0.2-0.4,1-0.8,0.5c0-0.2,0.1-0.5,0-0.6c-0.1,0.2-0.7,0.9-1,0.6l0.3-0.6c-1.4-0.6-2,1.5-3.2,1.9c0-1.5-1.1-2-1.7-2.2v-0.2
						c-1.6-0.1-2.7,1.4-4.1,2c-1-1.6-3.1-0.6-4.6-1.5c0.2,0.3,0,1.2-0.3,1.4c-0.4-0.3-0.9,1.1-0.9-0.3h0.1c-0.3-1.4-1-1-1.5-1v1.9
						c-1.5-2.6-3.7,1.1-4.6-1.3c-0.3,0.5-0.8,0.5-1.1,0.9v-1c-1-0.2-1.5-0.3-2.6-0.1l0.2-0.7c-0.7,0-0.8,2.9-1.4,3l-0.2-1.5
						c-1.2,0.1-2.4-1.2-3.5,0.2c0-0.2,0-0.6,0.2-0.7c-0.6,0-2.2-0.9-1.9,1.1c-0.1-1.3-1.2-0.1-1.8,0.5l0.1-1c-0.5,1.3-0.5,1.6-1.2,2
						c-0.2-0.1-0.2-0.8,0.1-0.5c-0.6-0.5-0.4,0.9-1.2,0.4l0.2-0.6c-0.6-0.1-0.6,0.3-0.9,1c-0.4,0.4-1.2-0.2-1.3-1.1
						c-0.1,0.5-0.4,1.3-0.7,1c-0.1-0.3,0.1-0.5,0.1-0.6c-1-0.6-1.5,1.2-2.2,0.2c0-0.3-0.1-0.5-0.1-0.6c0.8,0,1.5,0,1.4,0.1
						c0-0.9-0.7-1-0.2-2.3c-0.5,0.7-1.4,2.2-2,1.8c0-0.1-0.1-0.2-0.1-0.3l0.1-0.1c-0.1-0.1-0.3,0-0.4,0.2c-0.2-0.1-0.3-0.2-0.5-0.3
						c-0.2-0.8-0.8-0.5-1.2-0.5c0.1,1-0.4,0.8,0,1.6c-0.1-0.1,0.1-0.1,0.3-0.2c0,0,0.1,0,0.1-0.1v0.1c0.2,0,0.5-0.1,0.8-0.1
						c-0.2,0.5-0.5,0.9-0.9,0.4c-0.1,0.6-0.3,1.3-0.4,1.6c-0.5-1.4-1.4-2.1-1.5-2.9c-1,0.6-2.3,0.4-2.9,2.3
						c-0.3,0.2-0.3-0.5-0.5-0.8c0.2-0.2,0.4-0.2,0.4-0.4c-0.5,0.5-1.7,0.2-1.8,1.5c-0.7-0.6,0.4-1.2-0.6-1l0.1-0.4
						c-2-2-3,3.4-5.2,0.8c0.2,0.2,0.2,0.2,0.3,0.4c-2.5-1.1-5,1.2-7.4-0.6c-0.7-0.4-0.7,0.5-1.1,1.1l-0.2-1.1l-0.5,1.4
						c-1,0.9-1.8-2.5-3-0.8l0.2,0.7c-0.5-0.1-1.4,0.5-1.4-0.4c0,0.1-0.1,0.7-0.3,0.4v-0.6l-1.1,1c-0.9-0.4,0.1-2.2-1.2-2.3
						c-0.5,0.2-1.3,1.6-1.1,2c0.2,0,0.5,0.3,0.5,0.9L4.2,265c0,1.6-0.3,3.3,0.8,4.4l0.7-1l0.3,0.8l-0.6,0.1c0.4,0.7,0.6,0.1,0.8-0.4
						c0.1,0.4,0.2,0.7,0.3,0.9l0.5-1.6c0.1,0.7-0.3,1.3,0.2,1.7c0.3-0.7-0.4-1.4,0.2-1.9c0.4,0.7,0.3,1.3,0.7,0.7
						c0.1,0.4,0,0.7-0.2,0.9c0.4-0.5,1-0.2,1.1-1.1c0.4,0.9,1.2-0.3,1.2,1.3c0.1-0.4,0.6-1.2,1-1.3c-0.6,1.9,1.3,0.1,1.2,2.1
						c0.4-1.7,1.6-0.8,2.4-1.7c0,0.1-0.1,0.4-0.2,0.3c0.5,0.1,0.6,0.6,0.9,0.9c0-1.4,0.7-1.7,1.1-2.6c0.6,1.3-0.3,1.6-0.1,2.9
						c-0.1-1.1,0.9-1.1,0.7-2.1c0.5,0.8,0.4,0.4,0.6,1.5c0-1.7,0.4-0.3,0.7-1.4c0.6,0.8,0.2,1.6,0.9,1.1
						C19.9,270,19.3,270.6,19.3,270.6z M35.4,267.2L35.4,267.2c-0.1,0-0.3,0.1-0.3,0.1C35.1,267.2,35.2,267.2,35.4,267.2z
						 M36.8,267.1c-0.2,0-0.4,0-0.6,0c-0.1-0.3,0-0.7,0.1-0.7C36.2,266.6,36.6,266.9,36.8,267.1z M33.7,260.5c0.2-0.1,0.3,0,0.3,0.2
						c-0.1,0-0.2,0.1-0.4,0.1v0.1C33.6,260.8,33.7,260.5,33.7,260.5z"/>
					<path fill="#4A4A4A" d="M33.3,261.8L33.3,261.8c0,0.2,0,0.2,0,0.3C33.3,262,33.3,261.9,33.3,261.8
						C33.4,261.8,33.4,261.8,33.3,261.8z"/>
					<path fill="#4A4A4A" d="M156.9,259.8L156.9,259.8v0.1V259.8z"/>
					<polygon fill="#4A4A4A" points="55.6,268.5 55.6,268.2 55.5,268.5 					"/>
					<path fill="#4A4A4A" d="M164.5,263c0,0.1,0,0.2,0.1,0.2C164.6,263,164.5,263,164.5,263z"/>
					<path fill="#4A4A4A" d="M167.7,263l0.5,0.3C168,263.1,167.8,263,167.7,263z"/>
					<path fill="#4A4A4A" d="M170.2,263.5c0-0.2,0-0.3,0-0.4l0,0V263.5z"/>
					<path fill="#4A4A4A" d="M130.6,265.8L130.6,265.8C130.3,266,130.5,265.9,130.6,265.8z"/>
					<path fill="#4A4A4A" d="M142.4,263c-0.1,0.2-0.2,0.4-0.4,0.5C142.2,263.6,142.4,263.6,142.4,263z"/>
					<path fill="#4A4A4A" d="M117.5,267.2L117.5,267.2C117.5,267.2,117.4,267.2,117.5,267.2L117.5,267.2z"/>
					<path fill="#4A4A4A" d="M141.4,263.5c0.2,0.2,0.4,0.1,0.5,0C141.8,263.5,141.6,263.5,141.4,263.5z"/>
					<path fill="#4A4A4A" d="M181,263.6h0.1c0-0.1,0-0.1,0-0.2L181,263.6z"/>
					<path fill="#4A4A4A" d="M181.2,263.5l0.1-0.1C181.2,263.4,181.2,263.4,181.2,263.5z"/>
					<path fill="#4A4A4A" d="M181.6,263.1l-0.3,0.3C181.4,263.4,181.5,263.4,181.6,263.1z"/>
					<path fill="#4A4A4A" d="M177.7,263.2v0.4C177.7,263.5,177.7,263.5,177.7,263.2z"/>
					<path fill="#4A4A4A" d="M176.7,263.4c0.2,0.1,0.6,0.7,0.9,0.5v-0.3C177.5,264.1,176.9,262.8,176.7,263.4z"/>
					<path fill="#4A4A4A" d="M172.4,259l0.8,0.3c-0.2-0.4-0.4-0.9,0-1C172.2,257.2,173.5,259.2,172.4,259z"/>
					<path fill="#4A4A4A" d="M169.8,258.5c0.4-0.2,0-0.6,0-0.8C169.5,258.1,169.4,258.2,169.8,258.5z"/>
					<path fill="#4A4A4A" d="M151,259.1v-0.9C150.6,258.4,151,258.5,151,259.1z"/>
					<polygon fill="#4A4A4A" points="147.5,263.9 147.9,264.4 148,263.5 					"/>
					<polygon fill="#4A4A4A" points="145.2,257.5 145.3,257.4 144.8,257.8 					"/>
					<path fill="#4A4A4A" d="M113.6,258.8l0.1,1.1C114,259.6,114,258.4,113.6,258.8z"/>
					<path fill="#4A4A4A" d="M100,260.2c-0.2-0.5-0.6-0.9-0.8-0.3C99.5,260,99.8,260.4,100,260.2z"/>
					<polygon fill="#4A4A4A" points="59,259.5 59.3,259.1 58.8,259.5 					"/>
				</g>
			</g>
		</g>
	</g>
</g>
</svg>
