<?xml version="1.0" encoding="utf-8"?>
<!-- Generator: Adobe Illustrator 17.1.0, SVG Export Plug-In . SVG Version: 6.00 Build 0)  -->
<!DOCTYPE svg PUBLIC "-//W3C//DTD SVG 1.1//EN" "http://www.w3.org/Graphics/SVG/1.1/DTD/svg11.dtd">
<svg version="1.1" id="Layer_1" xmlns="http://www.w3.org/2000/svg" xmlns:xlink="http://www.w3.org/1999/xlink" x="0px" y="0px"
	 viewBox="0 224 200 40" enable-background="new 0 224 200 40" xml:space="preserve">
<g>
	<g>
		<line fill="none" x1="4.5" y1="259.2" x2="193.5" y2="255.2"/>
		<g>
			<g>
				<g>
					<g>
						<path fill="#4A4A4A" d="M193.5,257.2c0.1-0.3,0-0.8-0.2-0.7l-0.2,1L193.5,257.2z"/>
						<path fill="#4A4A4A" d="M191.7,255.4c-0.3,0.5-0.7,1.3-0.4,2.2c0.3-1,0.4-0.6,0.7-1.7c0.3-0.1,0.5,0.3,0.4,0.7
							c0.1-0.3,0.4,0.2,0.6-0.4c-0.4-0.8-0.8-0.8-1.3-0.1C191.5,255.8,191.6,255.6,191.7,255.4z"/>
						<path fill="#4A4A4A" d="M164.8,254.4l0.2,0.1C165,254.5,164.9,254.4,164.8,254.4z"/>
						<path fill="#4A4A4A" d="M148.2,254.2c0.1,0,0.2-0.1,0.2-0.2C148.3,254.1,148.2,254.1,148.2,254.2z"/>
						<path fill="#4A4A4A" d="M145.3,253.2c0.1,0,0.1,0,0.2,0.1C145.4,253.1,145.4,253.1,145.3,253.2z"/>
						<path fill="#4A4A4A" d="M164.8,254.4l-0.5-0.3C164.3,254.4,164.6,254.3,164.8,254.4z"/>
						<path fill="#4A4A4A" d="M188,257.9c0.1,0,0.2-0.1,0.2-0.3c-0.1,0-0.1,0.1-0.2,0.1C188,257.8,188,257.8,188,257.9z"/>
						<path fill="#4A4A4A" d="M172.1,253.4h0.1c0-0.1,0.1-0.3,0.1-0.4L172.1,253.4z"/>
						<path fill="#4A4A4A" d="M177.7,253.2c-0.1,0-0.2,0.8-0.2,1.2c0.1-0.3,0.2-0.5,0.3-0.6C177.8,253.6,177.8,253.4,177.7,253.2z"
							/>
						<path fill="#4A4A4A" d="M186.7,254.5l0.2-0.1C186.8,254.4,186.7,254.4,186.7,254.5z"/>
						<path fill="#4A4A4A" d="M168.1,253.3c0-0.1,0-0.2-0.1-0.3C168,253.2,168.1,253.3,168.1,253.3z"/>
						<path fill="#4A4A4A" d="M11.1,263c0-0.1,0-0.1,0-0.1V263z"/>
						<path fill="#4A4A4A" d="M4.5,259L4.5,259c0.1-0.2,0.1-0.4,0.1-0.5L4.5,259z"/>
						<path fill="#4A4A4A" d="M140.1,252.2L140.1,252.2C140.3,252.1,140.2,252.1,140.1,252.2z"/>
						<path fill="#4A4A4A" d="M92.5,253.8c0.6,0.7-0.9,1,0,1.8C92.4,255.3,93.2,254.3,92.5,253.8z"/>
						<path fill="#4A4A4A" d="M187.9,257.7c-0.1,0-0.2,0-0.2,0C187.7,257.8,187.8,257.8,187.9,257.7z"/>
						<path fill="#4A4A4A" d="M92.5,255.6L92.5,255.6L92.5,255.6C92.5,255.7,92.5,255.7,92.5,255.6z"/>
						<path fill="#4A4A4A" d="M128.2,253c0,0.1,0.1,0.3,0.1,0.4C128.3,253.2,128.3,253.1,128.2,253z"/>
						<path fill="#4A4A4A" d="M137.1,254l-0.2-0.1C137,253.9,137.1,254,137.1,254z"/>
						<path fill="#4A4A4A" d="M123.6,254.3c-0.1-0.1-0.2-0.2-0.3-0.1c0,0,0,0.1,0.1,0.1C123.4,254.2,123.5,254.1,123.6,254.3z"/>
						<path fill="#4A4A4A" d="M118.8,254.4c0,0.1,0.1,0.1,0.1,0.2c0,0,0.1,0,0.2,0L118.8,254.4z"/>
						<path fill="#4A4A4A" d="M25.7,262.3c-0.1-0.2-0.2-0.5-0.2-0.8C25.6,262.1,24.9,262.4,25.7,262.3z"/>
						<path fill="#4A4A4A" d="M188,257.4c0,0.2-0.1,0.3-0.1,0.4c0.1,0,0.1,0,0.2,0C188,257.6,188,257.5,188,257.4z"/>
						<path fill="#4A4A4A" d="M123.5,260.9l-0.8-0.1C123,260.9,123.3,260.9,123.5,260.9z"/>
						<path fill="#4A4A4A" d="M60.2,261.4l-0.2,0.1C60.1,261.6,60.2,261.5,60.2,261.4z"/>
						<path fill="#4A4A4A" d="M120.5,261c-0.1-0.3-0.3-0.5-0.4-0.6c0,0.1-0.1,0.1-0.1,0.2L120.5,261z"/>
						<path fill="#4A4A4A" d="M25.5,261.5L25.5,261.5L25.5,261.5z"/>
						<path fill="#4A4A4A" d="M20.5,263.6c0.7,0,0.3-1.1,0.5-1.7c0.9-0.3,0.4,0.8,0.7,1.4c0.5-0.3,0.9-1.3,1.3-1.3
							c0,0.2,0.1,0.2,0,0.5c0.6-0.9,1.7-0.1,2.3-1.2c0.1,0.1,0.1,0.2,0.1,0.3c-0.1-0.6-0.1-1.1-0.1-1.5c0.3,0,0.6-0.7,0.7,0
							c-0.2,0-0.2,0.3-0.3,0.5l0.3-0.3c0.3,1-0.5,0.4-0.4,1.1c0.7-0.4,1.4-1.2,1.9-0.9c0.1,1-1.2,0.4-0.5,1.3l-0.8-0.4
							c0.6,1.6-0.5-0.1,0.1,1.6c1,0.3,1.2-0.5,2.2-0.3c0.2-0.6-0.1-0.8,0.1-1.4c1.5-1,1.2,2.5,2.3,1.2c0.3-0.7,0.3-2,1.1-1.3
							l-0.2,1.2c1,0.1,0.5-1.7,1.6-0.9c-0.2,0.5-0.8,0.4-0.6,0.5c0.7,0.9,0.5-0.7,1-0.7l0.1,1c1.1-0.2,2.2-0.9,3.4-1.2
							c-0.1,0.3-0.3,0.6,0,0.9c1.5-0.5,3.2,0.1,4.7,0.6l0.5-0.9c0.1,0,0.2,0.4,0.1,0.6c0.6,0.3,0-0.6,0.3-0.9
							c0.3-0.1,0.4,0.5,0.2,0.8c1-0.8,2.8-1.7,3.9-0.7v0.1c0.8,0.3,0.9-1.8,1.7-1l-0.1,0.2c1.8,0.3,3.7-0.5,5.1,0.8
							c0.2-1.3,1.8,0.5,1.8-1.2c1,0.9,0.7,1.2,2.2,1.7c0.4,0.1,0.5-1.1,1-1.3v0.9l0.6-1l0.4,1.1l0.4-0.2c-0.2-0.1-0.4-0.4-0.4-0.7
							c0.7-0.4,1.7,0.6,1.7,1.1l1.6-0.8c0,0.4-0.3,0.5-0.5,0.7c0.9-1,0.2,1,1,0.1c-0.1-0.2,0-0.6,0.1-0.7c0.4,0.6,1.3,0.5,2,0.3
							l-0.1,0.6c1.2,0.1,2.5-0.4,3.9-0.4c-0.5-0.3-0.4-1.4,0-1.5l0.2,1c0.2-0.6-0.4-0.4,0.1-1.1c0.5,0.1,0.4,1.1,0.1,1.4l0.6-0.4
							c0,0.3-0.1,0.4-0.1,0.8c0.2-0.6,1.1,1,1.4-0.1v0.3c1.4,0,2-0.4,3.1-0.4c0-0.8,0.4-0.7,0.8-1.4c0.8,0.3,1.7,0.9,2.7,0.8
							c0.7-0.4,0.2-0.7,0.5-1.2c0.1,0.8,1,0.7,0.5,1.2c1.2-0.2,1.5-0.2,3-0.8c-0.2-0.3-0.4-0.4-0.3-0.7c0.3-0.1,0.6,0.3,0.6,0.7
							l-0.1,0.1c1.6-1.2,3.9,2.2,5.2,0.5l-0.1,0.1l1.4-0.9c0.6,0.1-0.4,0.6,0.1,1.1c1.5-1.3,2.4,0.1,3.6-0.7c1,2.2,3.4-0.2,4.7,1.2
							l-0.1-0.5c0.3-0.5,0.4,0.3,0.7,0.4c0-0.4-0.4-0.5-0.2-0.8c2.8-0.7,5.8,0.7,8.7,1.1c1.1,0.1,0.5-2.8,1.9-1.5l-0.4,1
							c2.1-1.2,4.3-0.1,6.4-1.1c-0.1,0.2-0.1,0.5-0.3,0.5c0.5,0.7,1.6,0,1.6-0.6c0.3,0.1,0.1,0.5,0.3,0.8c0.4,0.4,1.1-0.9,1.3-0.2
							c0,0.1-0.1,0.2-0.2,0.3c0.3-0.4,1.3,0.1,1-0.8c0.8,0.4,1.5-0.4,2.1,0.1c0.4-0.9,1.3,0.4,1.4-0.9c0,1.4,1.4,1.1,1.9,0.4
							c-0.2,0.4,0.4,0.4,0.3,1c0.6,0,1.1-0.3,1-1c1.1,1.6,2.1-1.4,2.7,0.7c1.7-0.8,3.2-1.3,4.7-1.6c0,1.4-1.7,0.2-1.6,1.6
							c1.4-0.6,2.2-1.8,3.6-1.5c0.4,0.2-0.2,0.6-0.3,0.8c1.4-0.6,2.8,0.1,4-0.7c0,0.1-0.1,0.3-0.3,0.4c0.2,0,0.6,0.2,0.5-0.4
							l-0.2,0.2c-0.4-0.9,1-1.9,1-2.4c-0.4,1.8,1.3,0.4,0.6,2.7c0.2-0.1,0.4-0.4,0.3-0.8c0.2,0.1,0.3,0.4,0.1,0.8
							c0.9-0.4,0.6-1,1.4-1c0,0.3-0.2,0.4-0.2,0.8c0.4-0.6,0.8-1.2,1.5-0.9c0,0.2,0,0.4-0.2,0.4c1.2-0.1,2-1.6,3.3-1.1
							c-0.4,1.3,0.4,0.4,0.5,1.5l0.7-0.3l-0.3-0.5c0.6,0,1.1-0.8,1.7-0.5l-0.4,0.5l1.1-0.2l-0.7-0.4c0.6-0.6-0.1-1.4,0.7-1.1
							c-0.2,0.1,0.6,0,0.9,0.7l0,0c0.3-0.4,0.6-0.7,1-0.5c0.1,0.4-0.1,1.2,0,1.5c0.3-0.9,1.4-0.3,1.8-1.3c-0.1,0.2-0.1,0.8-0.1,0.9
							l0.2-0.8c0.3,0.2,0.3,0.4,0.3,0.8c0.8,0.1-0.3-1.4,0.7-0.8c-0.1,0.1,0,0.2-0.2,0.3c1,0.3,1.9-0.5,2.9-0.2
							c0.3,1.1-0.8,0.3-0.5,1.2c1.3-0.2,2.7-1.4,4-1.2l-0.2-0.1c0.1-1.6,1,0.8,1.6,0c-0.2,0.1-0.2,0.9-0.2,0.7
							c0.9,0.2,1.8-0.4,3.1-1l-0.2,0.4c0.5,0.4,1.4,0.2,1.9,0.4c0.2-0.4,0.5-0.4,0.3-0.9c1.8,2.3,3.3-1.3,4.9,0.6
							c-0.2,0-0.4,0.4-0.3,0.4l1.3-0.4c-0.1-0.7-0.2-0.4-0.5-0.9c0.2-0.4,0.5-0.7,0.8-0.7c-0.6,0.5,0,1.1,0.3,1.5c0-0.2,0-0.4,0-0.7
							c0.7,1.2,0.1-1.4,1-0.6v0.4c0.3-0.2,0.7-0.7,1-0.6c0.2,0.8-0.4,0.4-0.4,1c0.5-0.1,1-1.5,1.5-0.8c-0.2,0.2-0.5,0.2-0.8,0.5
							c0.5,0.9,0.6,0.7,1,0.8l0,0l0.9,0.4l-0.2-0.3c0.6-2.1,1.3-0.4,2.2-1.8c-0.8,1.3-0.1,0.8-0.2,1.7c0.2,0.2,0.6,0.5,0.5,0.8
							c0.4-0.7,0.7,0.6,1.3-0.5c0,0.3,0.5,0,0.4,0.8c0.5-0.2-0.1-0.5-0.1-0.9c0.8-1,2,1.2,3.2-0.2c1-0.6,1.2-1.6,2.2-2.1
							c0.3,0.5-0.2,1.1-0.2,1.1c0.5,0.4,0.9,0.3,1.4,0c-0.1,0.3,0,0.5,0.2,0.8c0.4-0.1,0.2-1.1,0.8-0.7c-0.1,0.3-0.2,0.9-0.4,1.2
							c0.5-0.3,0.9-0.8,1.4-1.1c0.1,0.5-0.3,0.8-0.4,1.1c0.5-0.2,1.4-0.5,1.6-1.3l-0.4-0.3c0.2,0,0.1,0.7,0,0.8
							c-0.5,0.6-0.7-0.3-0.7-0.6l0.3-0.2c-0.4-1.7-1.4,0.3-2.1,0.2l0.3-1.3l-0.7,1.1c-0.2-0.3-0.3-1,0.1-1.2
							c-0.5-0.6-0.4,0.5-0.9-0.2c0-0.1,0-0.2,0-0.2l-0.5,0.4c0.1-0.3-0.1-0.9,0.2-0.7c-0.9-0.7-1.4,1-1.8,0l0.1-0.1
							c-1.2,0.4-0.1,0.9-1,2l-0.7-2.2l-0.1,0.9c-0.1,0-0.4-0.1-0.3-0.5c-0.5,0.6,0.1,0.4-0.2,1c-0.6-0.8-1.7,0.4-1.8-1
							c-0.2,0.7,0.6,0.5,0,1c-0.2-1.6-0.7,0.3-1.3-0.4c0.2-0.8,0.7-0.4,0.1-1.1c-0.3,1.4-1.1-0.3-1.6,0c0,1.1-1,0.5-1.8,0.9
							c0-0.4-1.5-0.6-2.2-0.9v-0.2c-0.1,1.1-0.9,0.9-1.4,1.2c0-0.7,0.1-0.9,0.4-1.2h-0.5c-0.1,0.4-0.3,0.5-0.6,0.7l0.1-0.8
							c-0.7,0.1-1.4,1-2.3,0.5c0,0.8,0.7,2.1-0.2,2.7c0-0.4-0.1-1.1,0.1-1.3c-0.1,0.1-0.3,0.4-0.4,0.2l0.4-0.7
							c-0.4-0.3-0.2,0.6-0.5,0.5c0-0.6-0.2-0.4-0.2-0.9c0.1-0.1,0.3,0.2,0.4,0c-0.4-0.1-0.8-0.4-1-0.9c0,0.3,0,0.8-0.2,0.9
							c-0.7,0.1-0.3-0.7-0.7-1c-0.2,0.4-0.6,0-0.6,0.9c-0.2,0-0.2-0.4-0.3-0.7c-0.3,0.4-1.7,0.1-1.2,1.1l0.1,0.1c0,0,0,0-0.1,0l0,0
							l0,0c-1.1,0.9-2.4-0.5-3.6,0v-0.3c-0.7,0.4-1.5,0.2-2,0.9c-0.2,0-0.5-0.5-0.4-0.9c-0.5,0.2-0.6,0.6-1.3,0.1
							c0.5-0.5-0.2-0.5,0.5-0.4c-0.7-0.2-0.9-0.7-1.6,0.1c0.2-0.8-0.5-0.9-0.9-0.7l0.5,0.5c-0.4,0.1-0.7,0.1-1,0l0.2-1
							c-1.4-1.2-2.5,2.1-3.6,0.1c-0.4,0.7,0.8,0.5,0.5,1.3c-0.6-0.1-1.4-1.5-1.6-1.5c-0.9-0.5-0.8,1.5-1.7,1.1
							c0.1,0.4,0.3,1.3-0.4,1.7c-0.6-0.1-0.8-1.5-0.4-1.8c0.2,0,0.2,0.1,0.2,0.2c0.2-0.1,0.5-0.3,0.2-0.7l-0.1,0.4
							c-0.3-0.4-1.2-0.3-1-0.9c-0.5,0.3-0.2,0.6,0.2,0.8c-0.8-0.5-1.3,0-2.2-0.3c0.1,0.2,0.3,0.6,0.1,0.6c-1.3-0.4-0.5,0.7-1.4,0.9
							c-0.5-0.5,0.1-1.3-0.7-0.8c-0.5-0.4-0.1-0.9,0.1-1.2c-0.8,0.7-1.5-0.4-1.9-0.5l0.4-0.3c-0.2,0.2-0.4,0.2-0.6,0.2l0.2,0.7
							c-0.2-0.1-0.4-0.1-0.4-0.4c-0.2,0.5,0.2,1.2-0.3,1.8c-0.3-0.4-1,0.4-1.1-0.5c1,0.3-0.1-0.9,0.7-1.1c-0.2,0.1-0.4,0.1-0.6,0
							c0-0.1,0-0.2,0.1-0.3c-1-0.8-0.4,1.1-1.4,1.1c0.1-0.5-0.3-1-0.4-0.9c0.4,0,0.2,0.9-0.1,1.3c-0.7-0.4-0.7,0.3-1,0.3l0.4,0.2
							c-0.1,0.5-0.4,0.5-0.9,0.6c0-0.4,0.4-0.3,0.2-0.5c-0.5,0.9-1.1-0.9-1.8-0.3c-0.3-0.4-0.1-1-0.3-1.2c-0.8,0.7-0.9-0.7-1.7-0.1
							c0.3,0.7,0.3,0.5-0.3,1.2l1.3-0.5l-0.8,1.1c0.4,0,0.8-0.5,1.1-0.4c-0.4,0.6-0.4,0.4-0.2,1c-0.6-1.1-1.1,0.6-1.7-0.1v-1.8
							c-1-0.8-1.7,0.9-2.9,0.5l0.4,0.3c-0.2,0.7-0.8,0.1-1.2,0.4c0-0.6-0.2-0.8-0.4-1.2c0,0.4-0.9,0-1,1.2l-0.6-0.8
							c-1-0.3-1.1,1.7-2.1,1.5c0.3-0.6-0.2-1.1,0.5-1.5c-0.3,0-0.6-0.1-0.6,0.3c-0.2-0.4-0.9,0.8-1.2,0.3c-0.1,0.3-0.2,0.9-0.5,0.8
							c0-0.1,0-0.3,0-0.3c0,0.3-0.6,0.4-0.2,1.1c-1-1.8-2.8,0.2-3.7-1.4c-0.7,0.2-1.5,0.4-2.2,0.5c0-0.2,0-0.3,0.1-0.2
							c-0.9-0.5-0.5,1.7-1.5,1.1c-0.5-0.9,0.5-0.5,0.2-0.9c-0.2-1.9-1.2,0.3-1.9-0.8l0.2-0.1c-0.5-0.7-1.2,0.8-2.1,0.6
							c0,0,0-0.2,0-0.3c-0.6,1-1.6,1.4-2.5,1.7c0.2-0.8,0.4-0.4,0.2-1.2c-0.4,0.1,0.1,1.2-0.6,1.5c-0.2-0.4-0.8-0.8-0.9-1.6l0.7-0.1
							c-0.4-1.1-0.9,0.1-1.3-0.1v-0.5c-1,0.2-1,1.4-2.2,1.3l0.1,0.4c-0.6,1.2-0.5-0.6-1.1,0.2l-0.2-1.2c-0.4,0.3-1.4,1.2-2.1,1.4
							c0.4-0.9,1.2-1.4,1.8-1.9c-0.4,0-1.4,0.1-1.6,0.7c0.2-0.1,0.4-0.4,0.5-0.2c-0.5,0.9-1.1,1.4-1.9,1.4c0.1-2.3-2.1-0.5-2.7-2.3
							c-1.4,0.9-2.8-0.3-4.5-0.1c0.6,1.8-0.5,0.1-0.3,1.9c-0.4,0.1-0.5,0.1-0.6,0l-1.2-1.1c-0.3-0.5,0.4-0.4,0.3-0.8
							c-0.9-0.1-0.4-0.8-0.9-1.2c0.1,0.7-0.3,0.9-0.8,0.7l0.7,0.8c-1.2,1-1.1-1.5-2.2-0.5l0.4-0.6c-0.6,0.4-2.3,0-2.8,1.5
							c-0.1-0.2-0.3-0.7,0-0.8c-1.5-0.2-3.2,1.6-4.4,0.8l0.1-0.5c-0.3,0.1-0.5,0.9-0.8,0.4c0-0.2,0.1-0.4,0-0.5
							c-0.1,0.2-0.7,0.8-1.1,0.5l0.3-0.5c-1.4-0.6-2.2,1.3-3.4,1.6c0-1.3-1.2-1.7-1.7-1.9V254c-1.7-0.1-2.8,1.2-4.3,1.7
							c-1-1.4-3.2-0.5-4.8-1.3c0.2,0.2,0,1-0.3,1.2c-0.4-0.3-1,0.9-0.9-0.3h0.1c-0.3-1.2-1-0.8-1.6-0.9l-0.3,1
							c-1.6-2.3-3.9,0.9-4.8-1.1c-0.4,0.4-0.8,0.4-1.2,0.8v-0.8c-1-0.2-1.5-0.3-2.8-0.1l0.2-0.6c-0.7,0-0.8,2.5-1.5,2.5l-0.2-1.3
							c-1.2,0-2.5-1-3.7,0.1c0-0.2,0-0.6,0.2-0.6c-0.6,0-2.3-0.8-2,0.9c0-1.1-1.3-0.1-1.9,0.4l0.1-0.8c-0.4,1.2-0.4,1.5-1.2,1.8
							c-0.2-0.1-0.2-0.7,0.1-0.5c-0.6-0.4-0.5,0.8-1.2,0.4l0.3-0.5c-0.6-0.1-0.6,0.2-0.9,0.9c-0.4,0.3-1.2-0.2-1.3-0.9
							c-0.1,0.5-0.4,1.1-0.8,0.9c-0.1-0.3,0.1-0.5,0.1-0.6c-1.1-0.5-1.6,1-2.3,0.2c0-0.3-0.1-0.4-0.1-0.5c0.8,0,1.5,0,1.5,0.1
							c0-0.8-0.7-0.9-0.2-2c-0.5,0.6-1.4,1.9-2.1,1.5c0-0.1-0.1-0.1-0.1-0.3l0.1-0.1c-0.2-0.1-0.3,0-0.4,0.1
							c-0.2-0.1-0.4-0.2-0.6-0.2c-0.1-0.6-0.8-0.3-1.1-0.4c0,0.8-0.4,0.7,0,1.4c-0.1-0.1,0.1-0.1,0.3-0.1c0.1,0,0.1,0,0.1-0.1v0.1
							c0.2,0,0.5-0.1,0.8-0.1c-0.3,0.4-0.5,0.8-0.9,0.3c-0.2,0.5-0.3,1.1-0.4,1.4c-0.5-1.2-1.4-1.8-1.5-2.5c-1,0.5-2.4,0.4-3.1,2
							c-0.3,0.2-0.3-0.4-0.5-0.7c0.2-0.2,0.4-0.1,0.5-0.4c-0.6,0.4-1.7,0.2-1.9,1.3c-0.8-0.5,0.4-1-0.6-0.8l0.1-0.3
							c-2.1-1.7-3.2,2.9-5.5,0.7c0.2,0.1,0.2,0.2,0.3,0.4c-2.6-0.9-5.2,1.1-7.8-0.5c-0.7-0.3-0.8,0.4-1.2,1l-0.2-0.9L13,258
							c-1,0.8-1.9-2.2-3.2-0.7l0.2,0.6c-0.5-0.1-1.5,0.4-1.4-0.3c0,0.1-0.1,0.6-0.3,0.3v-0.5l-1.2,0.8c-1.1-0.4-0.1-2-1.4-2
							c-0.5,0.2-1.4,1.4-1.2,1.7c0.2,0,0.5,0.3,0.5,0.8L4.6,259c-0.1,1.4-0.4,2.8,0.8,3.8l0.8-0.9l0.3,0.7l-0.7,0.1
							c0.4,0.6,0.6,0.1,0.9-0.3c0.1,0.4,0.2,0.6,0.3,0.7l0.7-1.3c0.1,0.5-0.3,1.1,0.2,1.4c0.3-0.6-0.4-1.2,0.2-1.6
							c0.4,0.4,0.3,0.9,0.7,0.4c0.1,0.4,0,0.6-0.2,0.8c0.4-0.4,1-0.2,1.2-1c0.4,0.8,1.3-0.2,1.3,1.1c0.1-0.3,0.7-1.1,1-1.1
							c-0.6,1.6,1.3,0.1,1.2,1.8c0.5-1.4,1.7-0.7,2.6-1.5c0,0.1-0.1,0.3-0.2,0.3c0.5,0.1,0.6,0.5,0.9,0.8c0-1.2,0.8-1.5,1.2-2.2
							c0.6,1.1-0.3,1.4-0.1,2.5c0-1,1-1,0.8-1.8c0.5,0.7,0.4,0.3,0.6,1.3c0-1.5,0.4-0.3,0.8-1.2c0.7,0.7,0.2,1.4,0.9,0.9
							C21.1,263.1,20.5,263.6,20.5,263.6z M37.4,260.7C37.4,260.7,37.4,260.8,37.4,260.7c-0.1,0-0.3,0.1-0.3,0.1
							C37.2,260.8,37.3,260.8,37.4,260.7z M38.9,260.7c-0.2,0-0.4,0-0.6,0c-0.1-0.3,0-0.6,0.1-0.6C38.3,260.3,38.7,260.5,38.9,260.7
							z M35.7,254.9c0.2-0.1,0.3,0,0.3,0.2c-0.1,0-0.2,0-0.4,0.1v0.1C35.7,255.2,35.7,255,35.7,254.9z"/>
						<path fill="#4A4A4A" d="M35.3,256C35.3,256.1,35.3,256.1,35.3,256c0,0.1,0,0.2,0,0.3C35.3,256.2,35.4,256.1,35.3,256
							C35.4,256,35.4,256,35.3,256z"/>
						<path fill="#4A4A4A" d="M165,254.5L165,254.5c0,0,0,0,0,0.1C165,254.6,165,254.6,165,254.5z"/>
						<polygon fill="#4A4A4A" points="58.7,261.9 58.7,261.7 58.5,261.9 						"/>
						<path fill="#4A4A4A" d="M173,257.3c0,0.1,0,0.1,0.1,0.2C173.1,257.4,173,257.3,173,257.3z"/>
						<path fill="#4A4A4A" d="M176.4,257.4l0.5,0.3C176.7,257.5,176.5,257.4,176.4,257.4z"/>
						<path fill="#4A4A4A" d="M179,257.7c0-0.1,0-0.3,0-0.4l0,0V257.7z"/>
						<path fill="#4A4A4A" d="M137.4,259.6h-0.1C137.1,259.8,137.2,259.8,137.4,259.6z"/>
						<path fill="#4A4A4A" d="M149.8,257.4c-0.1,0.2-0.3,0.3-0.4,0.4C149.6,257.8,149.8,257.9,149.8,257.4z"/>
						<path fill="#4A4A4A" d="M123.6,260.9L123.6,260.9L123.6,260.9L123.6,260.9z"/>
						<path fill="#4A4A4A" d="M148.8,257.8c0.2,0.2,0.4,0.1,0.6,0C149.2,257.7,149,257.7,148.8,257.8z"/>
						<path fill="#4A4A4A" d="M190.3,257.9h0.1c0-0.1,0-0.1,0-0.1L190.3,257.9z"/>
						<path fill="#4A4A4A" d="M190.5,257.8l0.1-0.1C190.6,257.7,190.5,257.7,190.5,257.8z"/>
						<path fill="#4A4A4A" d="M190.9,257.5l-0.3,0.2C190.7,257.7,190.9,257.7,190.9,257.5z"/>
						<path fill="#4A4A4A" d="M186.9,257.6v0.3C186.9,257.8,186.9,257.7,186.9,257.6z"/>
						<path fill="#4A4A4A" d="M185.8,257.7c0.3,0.1,0.6,0.6,1,0.4v-0.2C186.7,258.3,186.1,257.2,185.8,257.7z"/>
						<path fill="#4A4A4A" d="M181.4,254l0.9,0.2c-0.2-0.3-0.4-0.8,0-0.8C181.1,252.4,182.5,254.1,181.4,254z"/>
						<path fill="#4A4A4A" d="M178.6,253.6c0.5-0.2,0-0.5,0-0.7C178.3,253.2,178.2,253.3,178.6,253.6z"/>
						<path fill="#4A4A4A" d="M158.8,254v-0.8C158.5,253.3,158.9,253.5,158.8,254z"/>
						<polygon fill="#4A4A4A" points="155.2,258 155.5,258.5 155.7,257.8 						"/>
						<polygon fill="#4A4A4A" points="152.8,252.6 153,252.5 152.4,252.8 						"/>
						<path fill="#4A4A4A" d="M119.6,253.6l0.1,0.9C120,254.4,120,253.3,119.6,253.6z"/>
						<path fill="#4A4A4A" d="M105.3,254.9c-0.2-0.5-0.6-0.8-0.8-0.3C104.8,254.6,105.1,255,105.3,254.9z"/>
						<polygon fill="#4A4A4A" points="62.3,254.2 62.6,253.9 62,254.2 						"/>
					</g>
				</g>
			</g>
		</g>
	</g>
</g>
</svg>
