<?xml version="1.0" encoding="utf-8"?>
<!-- Generator: Adobe Illustrator 17.1.0, SVG Export Plug-In . SVG Version: 6.00 Build 0)  -->
<!DOCTYPE svg PUBLIC "-//W3C//DTD SVG 1.1//EN" "http://www.w3.org/Graphics/SVG/1.1/DTD/svg11.dtd">
<svg version="1.1" id="Layer_1" xmlns="http://www.w3.org/2000/svg" xmlns:xlink="http://www.w3.org/1999/xlink" x="0px" y="0px"
	 viewBox="0 234 200 25" enable-background="new 0 234 200 25" xml:space="preserve">
<g>
	<line fill="none" x1="4" y1="251.6" x2="194" y2="248.9"/>
	<g>
		<g>
			<g>
				<g>
					<path fill="#4A4A4A" d="M194,249.9c0.1-0.1,0-0.4-0.2-0.4l-0.2,0.5L194,249.9z"/>
					<path fill="#4A4A4A" d="M192.1,249c-0.3,0.2-0.7,0.7-0.5,1.1c0.3-0.5,0.4-0.3,0.7-0.9c0.3-0.1,0.5,0.2,0.4,0.3
						c0.1-0.1,0.4,0.1,0.6-0.2c-0.4-0.4-0.8-0.4-1.3-0.1C192,249.2,192.1,249.1,192.1,249z"/>
					<path fill="#4A4A4A" d="M165.2,248.6l0.2,0.1C165.3,248.6,165.3,248.6,165.2,248.6z"/>
					<path fill="#4A4A4A" d="M148.5,248.6c0.1,0,0.2-0.1,0.2-0.1C148.6,248.5,148.5,248.5,148.5,248.6z"/>
					<path fill="#4A4A4A" d="M145.6,248.1c0.1,0,0.1,0,0.2,0C145.7,248.1,145.7,248,145.6,248.1z"/>
					<path fill="#4A4A4A" d="M165.2,248.6l-0.4-0.1C164.7,248.6,165,248.6,165.2,248.6z"/>
					<path fill="#4A4A4A" d="M188.4,250.4c0.1,0,0.2-0.1,0.2-0.1C188.6,250.1,188.5,250.2,188.4,250.4
						C188.5,250.2,188.5,250.2,188.4,250.4z"/>
					<path fill="#4A4A4A" d="M172.5,248.1h0.1c0-0.1,0.1-0.1,0.1-0.2L172.5,248.1z"/>
					<path fill="#4A4A4A" d="M178.2,248c-0.1,0-0.2,0.4-0.2,0.6c0.1-0.2,0.2-0.3,0.3-0.3C178.3,248.2,178.2,248.1,178.2,248z"/>
					<path fill="#4A4A4A" d="M187.2,248.6l0.2-0.1C187.3,248.5,187.2,248.5,187.2,248.6z"/>
					<path fill="#4A4A4A" d="M168.5,248.1c0-0.1,0-0.1-0.1-0.1C168.4,248,168.5,248,168.5,248.1z"/>
					<path fill="#4A4A4A" d="M10.6,253.5L10.6,253.5C10.5,253.5,10.5,253.5,10.6,253.5z"/>
					<path fill="#4A4A4A" d="M4,251.5L4,251.5c0.1-0.1,0.1-0.1,0.1-0.2L4,251.5z"/>
					<path fill="#4A4A4A" d="M140.4,247.6L140.4,247.6C140.6,247.6,140.5,247.6,140.4,247.6z"/>
					<path fill="#4A4A4A" d="M92.5,248.6c0.5,0.4-0.9,0.5-0.1,0.9C92.4,249.4,93.2,248.9,92.5,248.6z"/>
					<path fill="#4A4A4A" d="M188.3,250.2c-0.1,0-0.2,0-0.2,0C188.2,250.2,188.2,250.2,188.3,250.2z"/>
					<path fill="#4A4A4A" d="M92.5,249.5L92.5,249.5L92.5,249.5C92.5,249.6,92.5,249.5,92.5,249.5z"/>
					<path fill="#4A4A4A" d="M128.4,248c0,0.1,0.1,0.1,0.1,0.2C128.5,248.2,128.5,248.1,128.4,248z"/>
					<path fill="#4A4A4A" d="M137.4,248.5l-0.2-0.1C137.2,248.5,137.3,248.5,137.4,248.5z"/>
					<path fill="#4A4A4A" d="M123.8,248.8c-0.1,0-0.2-0.1-0.3,0c0,0,0,0,0.1,0.1C123.5,248.8,123.6,248.6,123.8,248.8z"/>
					<path fill="#4A4A4A" d="M118.9,248.9C118.9,248.9,119,248.9,118.9,248.9c0.1,0.1,0.2,0.1,0.2,0.1L118.9,248.9z"/>
					<path fill="#4A4A4A" d="M25.3,253.1c-0.1-0.1-0.2-0.2-0.2-0.4C25.1,253,24.4,253.2,25.3,253.1z"/>
					<path fill="#4A4A4A" d="M188.4,250c0,0.1-0.1,0.2-0.1,0.2c0.1,0,0.1,0,0.2,0C188.5,250.1,188.5,250.1,188.4,250z"/>
					<path fill="#4A4A4A" d="M123.6,252l-0.8-0.1C123.1,252,123.3,252,123.6,252z"/>
					<path fill="#4A4A4A" d="M60,252.6l-0.2,0.1C59.9,252.6,59.9,252.6,60,252.6z"/>
					<path fill="#4A4A4A" d="M120.6,252.1c-0.1-0.1-0.3-0.2-0.4-0.3l-0.1,0.1L120.6,252.1z"/>
					<path fill="#4A4A4A" d="M25,252.8L25,252.8L25,252.8z"/>
					<path fill="#4A4A4A" d="M20,253.9c0.7,0,0.3-0.5,0.5-0.9c0.9-0.2,0.4,0.4,0.7,0.7c0.5-0.2,1-0.7,1.4-0.7c0,0.1,0.1,0.1,0,0.2
						c0.6-0.4,1.7,0,2.4-0.6c0.1,0,0.1,0.1,0.1,0.1c-0.1-0.3-0.1-0.6-0.1-0.8c0.3,0,0.6-0.4,0.7,0c-0.2,0-0.2,0.1-0.3,0.3l0.3-0.2
						c0.3,0.5-0.5,0.2-0.5,0.6c0.7-0.2,1.4-0.6,2-0.5c0.1,0.5-1.2,0.2-0.5,0.6l-0.8-0.2c0.6,0.8-0.5,0,0.1,0.8
						c1,0.1,1.2-0.3,2.2-0.1c0.2-0.3-0.1-0.4,0.1-0.7c1.5-0.5,1.2,1.3,2.3,0.6c0.3-0.3,0.4-1,1.2-0.7l-0.3,0.6c1,0,0.6-0.8,1.6-0.5
						c-0.2,0.2-0.8,0.2-0.6,0.3c0.7,0.4,0.5-0.3,1-0.3l0.1,0.5c1.1-0.1,2.3-0.5,3.5-0.6c-0.1,0.2-0.3,0.3,0,0.5
						c1.5-0.3,3.2,0,4.7,0.3l0.5-0.4c0.1,0,0.2,0.2,0.1,0.3c0.6,0.2,0-0.3,0.3-0.5c0.3,0,0.4,0.2,0.2,0.4c1-0.4,2.8-0.8,3.9-0.4
						l-0.2,0.1c0.8,0.2,0.9-0.9,1.7-0.5l-0.1,0.1c1.8,0.2,3.7-0.3,5.1,0.4c0.2-0.6,1.8,0.3,1.9-0.6c1,0.4,0.7,0.6,2.2,0.9
						c0.4,0,0.6-0.6,1-0.7v0.5l0.6-0.5l0.3,0.5l0.4-0.1c-0.2,0-0.4-0.2-0.4-0.3c0.7-0.2,1.7,0.3,1.7,0.5l1.6-0.4
						c0,0.2-0.3,0.3-0.5,0.4c0.9-0.5,0.2,0.5,1,0c-0.1-0.1,0.1-0.3,0.1-0.4c0.4,0.3,1.3,0.3,2,0.1l-0.1,0.3c1.2,0.1,2.6-0.2,3.9-0.2
						c-0.5-0.1-0.4-0.7,0-0.8l0.2,0.5c0.3-0.3-0.4-0.2,0.1-0.6c0.5,0,0.4,0.6,0.1,0.7l0.6-0.2c0,0.1-0.1,0.2-0.1,0.4
						c0.2-0.3,1.1,0.5,1.4-0.1v0.1c1.4,0,2-0.2,3.1-0.2c0-0.4,0.5-0.3,0.8-0.7c0.9,0.4,1.8,0.7,2.8,0.7c0.7-0.2,0.2-0.4,0.5-0.6
						c0.1,0.4,1,0.3,0.5,0.6c1.2-0.1,1.5-0.1,3-0.4c-0.2-0.2-0.3-0.2-0.3-0.4c0.3-0.1,0.6,0.2,0.6,0.3h-0.1c1.7-0.6,3.9,1.1,5.2,0.2
						h-0.1l1.4-0.4c0.6,0.1-0.4,0.3,0.1,0.5c1.5-0.7,2.4,0.1,3.6-0.4c1,1.1,3.4-0.1,4.7,0.6l-0.1-0.3c0.3-0.3,0.4,0.1,0.6,0.2
						c0-0.2-0.4-0.2-0.2-0.4c2.8-0.4,5.8,0.3,8.7,0.5c1.1,0.1,0.6-1.4,1.9-0.8l-0.4,0.5c2.1-0.6,4.4,0,6.4-0.6
						c-0.1,0.1-0.1,0.3-0.3,0.3c0.4,0.4,1.6,0,1.6-0.3c0.3,0,0.1,0.3,0.3,0.4c0.4,0.2,1.1-0.5,1.3-0.1c0,0.1-0.1,0.1-0.2,0.1
						c0.3-0.2,1.3,0,1.1-0.4c0.8,0.2,1.5-0.2,2.1,0c0.4-0.5,1.3,0.2,1.5-0.5c0,0.7,1.4,0.5,1.9,0.2c-0.2,0.2,0.4,0.2,0.2,0.5
						c0.6,0,1.1-0.2,1-0.5c1.1,0.8,2.1-0.7,2.7,0.3c1.7-0.4,3.2-0.7,4.7-0.8c0,0.7-1.7,0.1-1.6,0.8c1.4-0.3,2.2-0.9,3.7-0.7
						c0.4,0.1-0.2,0.3-0.3,0.4c1.4-0.3,2.8,0,4-0.4c0,0.1-0.1,0.1-0.3,0.2c0.3,0,0.6,0.1,0.6-0.2l-0.2,0.1c-0.4-0.4,1-0.9,1-1.2
						c-0.4,0.9,1.3,0.2,0.6,1.3c0.2-0.1,0.4-0.2,0.3-0.4c0.2,0.1,0.3,0.2,0.1,0.4c0.9-0.2,0.6-0.5,1.4-0.5c0,0.1-0.2,0.2-0.2,0.4
						c0.4-0.3,0.8-0.6,1.5-0.5c0,0.1,0,0.2-0.2,0.2c1.2-0.1,2-0.8,3.3-0.5c-0.4,0.7,0.4,0.2,0.5,0.8l0.7-0.2l-0.3-0.3
						c0.6,0,1.1-0.4,1.7-0.2l-0.4,0.2l1.1-0.1l-0.6-0.2c0.6-0.3-0.1-0.7,0.7-0.6c-0.2,0.1,0.6,0,0.9,0.3l0,0
						c0.3-0.2,0.6-0.4,1.1-0.2c0.1,0.2-0.1,0.6,0,0.7c0.3-0.5,1.4-0.2,1.8-0.7c-0.1,0.1-0.1,0.4-0.1,0.5l0.2-0.4
						c0.3,0.1,0.3,0.2,0.3,0.4c0.9,0.1-0.3-0.7,0.7-0.4c-0.1,0,0,0.1-0.2,0.1c1,0.1,2-0.3,2.9-0.1c0.3,0.6-0.8,0.1-0.5,0.6
						c1.3-0.1,2.8-0.7,4.1-0.6l-0.2-0.1c0.2-0.8,1,0.4,1.6,0c-0.2,0.1-0.2,0.4-0.2,0.4c0.9,0.1,1.8-0.2,3.2-0.5l-0.2,0.2
						c0.5,0.2,1.4,0.1,1.9,0.2c0.2-0.2,0.5-0.2,0.3-0.5c1.8,1.1,3.3-0.7,4.9,0.3c-0.2,0-0.4,0.2-0.3,0.2l1.3-0.2
						c-0.1-0.3-0.2-0.2-0.5-0.5c0.2-0.2,0.5-0.4,0.9-0.4c-0.6,0.2,0,0.6,0.3,0.7c0-0.1,0-0.2,0-0.3c0.7,0.6,0.1-0.7,1.1-0.3v0.2
						c0.4-0.1,0.7-0.3,1.1-0.3c0.2,0.4-0.4,0.2-0.4,0.5c0.5,0,1-0.8,1.5-0.4c-0.2,0.1-0.6,0.1-0.8,0.2c0.5,0.5,0.6,0.3,1,0.4l0,0
						l0.9,0.2l-0.2-0.1c0.7-1.1,1.4-0.2,2.2-0.9c-0.9,0.7-0.1,0.4-0.2,0.8c0.2,0.1,0.6,0.3,0.5,0.4c0.4-0.4,0.7,0.3,1.3-0.3
						c0,0.1,0.5,0,0.4,0.4c0.6-0.1-0.1-0.3-0.1-0.4c0.8-0.5,2,0.6,3.2-0.1c1.1-0.3,1.2-0.8,2.2-1.1c0.3,0.2-0.3,0.5-0.3,0.5
						c0.5,0.2,0.9,0.2,1.4,0c-0.1,0.1,0,0.2,0.2,0.4c0.4,0,0.3-0.5,0.8-0.3c-0.1,0.2-0.2,0.4-0.4,0.6c0.5-0.1,0.9-0.4,1.4-0.6
						c0.1,0.3-0.3,0.4-0.5,0.6c0.6-0.1,1.4-0.3,1.6-0.7l-0.4-0.1c0.2,0,0.1,0.3,0,0.4c-0.5,0.3-0.7-0.1-0.7-0.3l0.3-0.1
						c-0.4-0.9-1.4,0.2-2.1,0.1l0.3-0.6l-0.7,0.5c-0.2-0.2-0.3-0.5,0.1-0.6c-0.5-0.3-0.4,0.2-0.9-0.1c0-0.1,0-0.1,0-0.1l-0.5,0.2
						c0.1-0.1-0.1-0.4,0.2-0.4c-0.9-0.3-1.4,0.5-1.8,0h0.1c-1.2,0.2-0.1,0.5-1,1l-0.6-1.1l-0.1,0.5c-0.1,0-0.4,0-0.3-0.2
						c-0.5,0.3,0.1,0.2-0.2,0.5c-0.6-0.4-1.7,0.2-1.8-0.5c-0.2,0.4,0.6,0.3-0.1,0.5c-0.2-0.8-0.8,0.1-1.3-0.2
						c0.2-0.4,0.7-0.2,0.1-0.6c-0.3,0.7-1.1-0.1-1.6,0c0,0.5-1,0.2-1.8,0.4c0-0.2-1.5-0.3-2.2-0.5v-0.1c-0.1,0.6-0.9,0.5-1.4,0.6
						c0-0.3,0.1-0.5,0.4-0.6h-0.5c-0.1,0.2-0.3,0.3-0.6,0.3l0.1-0.4c-0.7,0-1.4,0.5-2.3,0.2c0,0.4,0.7,1.1-0.2,1.3
						c0-0.2-0.1-0.6,0.2-0.7c-0.1,0-0.3,0.2-0.4,0.1l0.4-0.4c-0.4-0.1-0.2,0.3-0.5,0.3c0-0.3-0.2-0.2-0.2-0.4c0.1,0,0.3,0.1,0.4,0
						c-0.4,0-0.8-0.2-1-0.4c0,0.2,0,0.4-0.3,0.4c-0.7,0-0.2-0.4-0.6-0.5c-0.2,0.2-0.6,0-0.6,0.4c-0.2,0-0.2-0.2-0.3-0.3
						c-0.4,0.2-1.7,0.1-1.3,0.5h0.1c0,0,0,0-0.1,0l0,0l0,0c-1.2,0.5-2.4-0.2-3.6,0v-0.1c-0.7,0.2-1.5,0.1-2,0.4
						c-0.2,0-0.5-0.3-0.4-0.4c-0.5,0.1-0.6,0.3-1.4,0.1c0.5-0.3-0.2-0.2,0.5-0.2c-0.7-0.1-0.9-0.4-1.6,0.1c0.2-0.4-0.5-0.5-0.9-0.4
						l0.5,0.3c-0.4,0.1-0.7,0-1,0l0.2-0.5c-1.4-0.6-2.5,1.1-3.6,0.1c-0.4,0.4,0.8,0.2,0.4,0.6c-0.7-0.1-1.3-0.8-1.5-0.8
						c-0.9-0.3-0.8,0.7-1.8,0.6c0.1,0.2,0.2,0.6-0.5,0.8c-0.7-0.1-0.8-0.7-0.4-0.9c0.2,0,0.2,0,0.2,0.1c0.2-0.1,0.5-0.1,0.2-0.3
						l-0.1,0.2c-0.3-0.2-1.2-0.1-1-0.4c-0.5,0.2-0.2,0.3,0.2,0.4c-0.8-0.2-1.3,0-2.2-0.1c0.1,0.1,0.3,0.3,0.1,0.3
						c-1.3-0.2-0.5,0.3-1.4,0.4c-0.5-0.3,0.2-0.7-0.7-0.4c-0.5-0.2-0.1-0.5,0.1-0.6c-0.8,0.4-1.5-0.2-1.9-0.3l0.4-0.1
						c-0.2,0.1-0.4,0.1-0.7,0.1l0.2,0.4c-0.2-0.1-0.4-0.1-0.4-0.2c-0.2,0.2,0.2,0.6-0.3,0.9c-0.3-0.2-1,0.2-1.1-0.3
						c1,0.1-0.1-0.5,0.7-0.6c-0.2,0.1-0.4,0.1-0.6,0c0-0.1,0-0.1,0.1-0.1c-1-0.4-0.4,0.5-1.4,0.5c0.1-0.3-0.2-0.5-0.4-0.4
						c0.4,0,0.2,0.4-0.2,0.7c-0.6-0.2-0.7,0.2-1,0.1l0.4,0.1c-0.1,0.3-0.4,0.2-0.9,0.3c0-0.2,0.4-0.1,0.2-0.2
						c-0.5,0.5-1.1-0.5-1.8-0.1c-0.3-0.2,0-0.5-0.3-0.6c-0.8,0.4-0.8-0.4-1.7-0.1c0.2,0.4,0.3,0.3-0.3,0.6l1.3-0.3l-0.9,0.5
						c0.4,0,0.9-0.2,1.1-0.2c-0.4,0.3-0.4,0.2-0.2,0.5c-0.6-0.5-1.1,0.3-1.7,0v-0.9c-1-0.4-1.7,0.5-3,0.3l0.4,0.1
						c-0.2,0.4-0.8,0.1-1.2,0.2c0-0.3-0.2-0.4-0.4-0.6c0,0.2-0.9,0-1,0.6l-0.6-0.4c-1-0.1-1.1,0.9-2.1,0.8c0.3-0.3-0.2-0.5,0.5-0.8
						c-0.3,0-0.6,0-0.6,0.2c-0.2-0.2-0.9,0.4-1.2,0.1c-0.1,0.1-0.2,0.4-0.5,0.4c0-0.1,0-0.1,0-0.1c0,0.1-0.6,0.2-0.2,0.5
						c-1-0.9-2.8,0.1-3.7-0.7c-0.7,0.1-1.6,0.2-2.2,0.2c0-0.1,0-0.1,0.1-0.1c-0.9-0.3-0.5,0.9-1.6,0.6c-0.5-0.5,0.5-0.3,0.2-0.4
						c-0.2-1-1.2,0.2-1.9-0.4l0.2-0.1c-0.5-0.3-1.3,0.4-2.1,0.3v-0.1c-0.6,0.5-1.7,0.7-2.5,0.8c0.2-0.4,0.4-0.2,0.2-0.6
						c-0.4,0.1,0.1,0.6-0.6,0.7c-0.2-0.2-0.8-0.4-0.8-0.8h0.7c-0.4-0.5-0.9,0-1.3-0.1V248c-1.1,0.1-1.1,0.7-2.2,0.7l0.1,0.2
						c-0.6,0.6-0.5-0.3-1.1,0.1l-0.2-0.6c-0.4,0.1-1.4,0.6-2.2,0.7c0.4-0.4,1.3-0.7,1.8-1c-0.4,0-1.4,0.1-1.6,0.4
						c0.2-0.1,0.4-0.2,0.5-0.1c-0.5,0.5-1.1,0.7-2,0.7c0.1-1.2-2.1-0.3-2.7-1.1c-1.4,0.4-2.8-0.1-4.5,0c0.6,0.9-0.5,0-0.4,0.9
						c-0.4,0.1-0.5,0.1-0.6,0l-1.2-0.5c-0.3-0.3,0.4-0.2,0.3-0.4c-0.9-0.1-0.4-0.4-0.9-0.6c0.1,0.3-0.3,0.5-0.8,0.4l0.7,0.4
						c-1.2,0.5-1-0.8-2.2-0.3l0.4-0.3c-0.6,0.2-2.3,0-2.9,0.8c-0.1-0.1-0.3-0.4,0-0.4c-1.5-0.1-3.3,0.8-4.4,0.4l0.1-0.2
						c-0.3,0.1-0.5,0.4-0.8,0.2c0-0.1,0.1-0.2,0-0.2c-0.1,0.1-0.7,0.4-1.1,0.3l0.3-0.3c-1.4-0.3-2.2,0.6-3.4,0.8
						c0-0.7-1.1-0.9-1.7-1v-0.1c-1.7-0.1-2.8,0.6-4.4,0.9c-1-0.7-3.3-0.3-4.8-0.6c0.2,0.1,0,0.5-0.3,0.6c-0.4-0.1-1,0.5-0.9-0.1h0.1
						c-0.3-0.6-1-0.4-1.6-0.4l-0.1,0.8c-1.5-1.1-4,0.5-4.8-0.5c-0.4,0.2-0.8,0.2-1.2,0.4v-0.4c-1-0.1-1.5-0.1-2.8,0l0.3-0.3
						c-0.7,0-0.9,1.2-1.5,1.3l-0.2-0.6c-1.2,0-2.5-0.5-3.7,0.1c0-0.1,0.1-0.3,0.3-0.3c-0.6,0-2.3-0.4-2,0.5c0-0.6-1.3,0-1.9,0.2
						l0.1-0.4c-0.6,0.5-0.6,0.7-1.4,0.8c-0.2-0.1-0.2-0.3,0.1-0.2c-0.6-0.2-0.5,0.4-1.2,0.2l0.3-0.3c-0.6,0-0.6,0.1-0.9,0.4
						c-0.4,0.2-1.2-0.1-1.3-0.5c-0.1,0.2-0.4,0.5-0.8,0.4c-0.1-0.1,0.1-0.2,0.2-0.3c-1.1-0.3-1.6,0.5-2.3,0.1c0-0.1-0.1-0.2-0.1-0.2
						c0.8,0,1.5,0,1.5,0c0-0.4-0.7-0.4-0.2-1c-0.5,0.3-1.5,0.9-2.2,0.8l-0.1-0.1h0.1c-0.2,0-0.3,0-0.4,0.1c-0.2-0.1-0.4-0.1-0.6-0.1
						c-0.1-0.3-0.8-0.2-1.1-0.2c0,0.4-0.4,0.4,0,0.7c-0.1,0,0.1-0.1,0.3-0.1c0.1,0,0.1,0,0.1,0l0,0c0.2,0,0.5,0,0.9,0
						c-0.3,0.2-0.5,0.4-0.9,0.2c-0.2,0.3-0.4,0.6-0.5,0.7c-0.5-0.6-1.4-0.9-1.5-1.2c-1,0.3-2.5,0.2-3.1,1c-0.3,0.1-0.3-0.2-0.5-0.3
						c0.2-0.1,0.4-0.1,0.5-0.2c-0.6,0.2-1.8,0.1-1.9,0.7c-0.8-0.2,0.4-0.5-0.6-0.4l0.1-0.2c-2-0.9-3.3,1.5-5.5,0.4
						c0.2,0.1,0.2,0.1,0.3,0.2c-2.6-0.5-5.3,0.5-7.8-0.2c-0.7-0.1-0.8,0.2-1.2,0.5l-0.1-0.3l-0.7,0.5c-1.1,0.4-1.9-1.1-3.2-0.3
						l0.2,0.3c-0.5,0-1.6,0.2-1.5-0.1c0,0.1-0.2,0.3-0.3,0.2v-0.2l-1.2,0.4c-0.9-0.2,0.1-0.9-1.2-1c-0.5,0.1-1.4,0.7-1.2,0.9
						c0.2,0,0.5,0.1,0.5,0.4l-0.5,0.1c-0.1,0.6-0.4,1.3,0.7,1.8l0.8-0.4l0.3,0.3H5.2c0.4,0.3,0.6,0,0.9-0.2c0.1,0.2,0.2,0.3,0.3,0.4
						l0.8-0.7c0.1,0.3-0.3,0.5,0.2,0.7c0.4-0.3-0.4-0.6,0.2-0.8c0.4,0.3,0.3,0.6,0.7,0.3c0.1,0.2,0,0.3-0.2,0.4
						c0.4-0.2,1-0.1,1.2-0.5c0.4,0.4,1.3-0.1,1.3,0.5c0.1-0.2,0.7-0.5,1-0.6c-0.6,0.8,1.3,0,1.2,0.9c0.5-0.7,1.7-0.3,2.6-0.7
						c0,0.1-0.1,0.2-0.2,0.1c0.5,0.1,0.6,0.3,0.9,0.4c0.1-0.6,0.8-0.7,1.2-1.1c0.6,0.6-0.3,0.7-0.2,1.2c0-0.5,1-0.5,0.8-0.9
						c0.5,0.3,0.4,0.2,0.6,0.6c0.1-0.7,0.4-0.1,0.8-0.6c0.7,0.4,0.2,0.7,0.9,0.5C20.6,253.5,20,253.9,20,253.9z M37.1,252.4
						L37.1,252.4c-0.1,0-0.3,0-0.4,0C36.8,252.4,36.9,252.4,37.1,252.4z M38.5,252.4c-0.2,0-0.4,0-0.6,0c-0.1-0.1,0-0.3,0.1-0.3
						C38,252.1,38.3,252.1,38.5,252.4z M35.4,249.4c0.2-0.1,0.3,0,0.3,0.1c-0.1,0-0.2,0-0.4,0.1c0,0,0,0,0,0.1
						C35.4,249.5,35.4,249.4,35.4,249.4z"/>
					<path fill="#4A4A4A" d="M35,249.9C35,250,35,250,35,249.9C35,250,35,250,35,249.9L35,249.9C35.1,249.9,35.1,249.9,35,249.9z"/>
					<path fill="#4A4A4A" d="M165.4,248.8L165.4,248.8L165.4,248.8L165.4,248.8z"/>
					<polygon fill="#4A4A4A" points="58.4,252.9 58.4,252.8 58.3,252.9 					"/>
					<path fill="#4A4A4A" d="M173.3,250c0,0,0,0.1,0.1,0.1C173.4,250.1,173.4,250.1,173.3,250z"/>
					<path fill="#4A4A4A" d="M176.8,250.1l0.5,0.1C177,250.1,176.9,250.1,176.8,250.1z"/>
					<path fill="#4A4A4A" d="M179.4,250.2c0-0.1,0-0.1,0-0.2l0,0V250.2z"/>
					<path fill="#4A4A4A" d="M137.6,251.4h-0.1C137.2,251.4,137.4,251.4,137.6,251.4z"/>
					<path fill="#4A4A4A" d="M150,250.2c-0.1,0.1-0.3,0.2-0.4,0.2C149.8,250.4,150,250.4,150,250.2z"/>
					<path fill="#4A4A4A" d="M123.7,252L123.7,252C123.7,252,123.6,252,123.7,252L123.7,252z"/>
					<path fill="#4A4A4A" d="M149,250.4c0.2,0.1,0.4,0.1,0.6,0C149.4,250.4,149.2,250.4,149,250.4z"/>
					<path fill="#4A4A4A" d="M190.8,250.4h0.1v-0.1L190.8,250.4z"/>
					<path fill="#4A4A4A" d="M190.9,250.2l0.1-0.1C191,250.2,191,250.2,190.9,250.2z"/>
					<path fill="#4A4A4A" d="M191.4,250l-0.3,0.1C191.2,250.2,191.3,250.2,191.4,250z"/>
					<path fill="#4A4A4A" d="M187.3,250.1v0.2C187.3,250.2,187.3,250.2,187.3,250.1z"/>
					<path fill="#4A4A4A" d="M186.3,250.2c0.3,0,0.6,0.3,1,0.2v-0.1C187.1,250.5,186.5,249.9,186.3,250.2z"/>
					<path fill="#4A4A4A" d="M181.8,248.4l0.9,0.1c-0.2-0.2-0.4-0.4,0-0.4C181.6,247.6,183,248.4,181.8,248.4z"/>
					<path fill="#4A4A4A" d="M179.1,248.2c0.5-0.1,0-0.2,0-0.3C178.8,248,178.7,248,179.1,248.2z"/>
					<path fill="#4A4A4A" d="M159.2,248.4V248C158.9,248.1,159.2,248.2,159.2,248.4z"/>
					<polygon fill="#4A4A4A" points="155.4,250.5 155.8,250.8 155.9,250.4 					"/>
					<polygon fill="#4A4A4A" points="153.1,247.9 153.3,247.8 152.7,247.9 					"/>
					<path fill="#4A4A4A" d="M119.8,248.4l0.1,0.5C120.1,248.9,120.2,248.2,119.8,248.4z"/>
					<path fill="#4A4A4A" d="M105.4,249.1c-0.2-0.2-0.6-0.4-0.8-0.1C104.9,249,105.2,249.1,105.4,249.1z"/>
					<polygon fill="#4A4A4A" points="62.2,248.9 62.4,248.9 61.9,248.9 					"/>
				</g>
			</g>
		</g>
	</g>
</g>
</svg>
